<?xml version="1.0" encoding="utf-8"?>
<!-- Generator: Adobe Illustrator 18.1.1, SVG Export Plug-In . SVG Version: 6.00 Build 0)  -->
<svg version="1.1" id="Layer_1" xmlns="http://www.w3.org/2000/svg" xmlns:xlink="http://www.w3.org/1999/xlink" x="0px" y="0px"
	 viewBox="0 0 421.4 91.6" enable-background="new 0 0 421.4 91.6" xml:space="preserve">
<rect x="0" y="2.3" fill="#FFFFFF" width="97.4" height="62.4"/>
<path fill="none" stroke="#000000" stroke-miterlimit="10" d="M48.6,22.7"/>
<path fill="none" stroke="#000000" stroke-miterlimit="10" d="M48.6,34.7"/>
<path fill="none" stroke="#000000" stroke-miterlimit="10" d="M28.1,34.2"/>
<path fill="none" stroke="#000000" stroke-miterlimit="10" d="M48.1,34.2"/>
<rect x="164" y="2.3" fill="#FFFFFF" width="97.4" height="62.4"/>
<rect x="251.1" y="2.3" fill="#F1824C" width="10.4" height="10.4"/>
<text transform="matrix(0.7071 0.7071 -0.7071 0.7071 251.2456 7.2957)" fill="#FFFFFF" font-family="'Helvetica-Bold'" font-size="12">+</text>
<polygon fill="#F1824C" points="280.3,11.5 265.6,7.6 269.5,22.3 272.6,17.8 278.3,23.6 281.5,20.3 275.8,14.6 "/>
<g opacity="0.21">
	<circle cx="38.7" cy="76.1" r="3.4"/>
	<circle cx="48.7" cy="76.1" r="3.4"/>
	<circle cx="58.7" cy="76.1" r="3.4"/>
</g>
<g opacity="0.21">
	<circle cx="202.7" cy="76.1" r="3.4"/>
	<circle cx="212.7" cy="76.1" r="3.4"/>
	<circle cx="222.7" cy="76.1" r="3.4"/>
</g>
<g>
	
		<line fill="none" stroke="#DDDDDD" stroke-width="4" stroke-linecap="round" stroke-miterlimit="10" x1="22.1" y1="29.7" x2="76.1" y2="29.7"/>
	
		<line fill="none" stroke="#DDDDDD" stroke-width="4" stroke-linecap="round" stroke-miterlimit="10" x1="22.1" y1="36.7" x2="47.1" y2="36.7"/>
</g>
<g>
	<polygon fill="#F1824C" points="89.3,45.5 74.6,41.6 78.5,56.3 81.6,51.8 87.3,57.6 90.5,54.3 84.8,48.6 	"/>
	<g>
		<path fill="#F1824C" d="M68.4,43.7H62c-0.6,0-1.1-0.5-1.1-1.1v0c0-0.6,0.5-1.1,1.1-1.1h6.5c0.6,0,1.1,0.5,1.1,1.1v0
			C69.6,43.2,69.1,43.7,68.4,43.7z"/>
		<path fill="#F1824C" d="M74.5,34.9v-6.5c0-0.6,0.5-1.1,1.1-1.1h0c0.6,0,1.1,0.5,1.1,1.1v6.5c0,0.6-0.5,1.1-1.1,1.1h0
			C75,36.1,74.5,35.5,74.5,34.9z"/>
		<path fill="#F1824C" d="M70,37.8l-4.6-4.6c-0.4-0.4-0.4-1.2,0-1.6v0c0.4-0.4,1.2-0.4,1.6,0l4.6,4.6c0.4,0.4,0.4,1.2,0,1.6v0
			C71.1,38.2,70.4,38.2,70,37.8z"/>
	</g>
</g>
<rect x="324" y="2.3" fill="#FFFFFF" width="97.4" height="62.4"/>
<g>
	<circle fill="#F1824C" cx="362.7" cy="76.1" r="3.4"/>
	<circle fill="#F1824C" cx="372.7" cy="76.1" r="3.4"/>
	<circle fill="#F1824C" cx="382.7" cy="76.1" r="3.4"/>
</g>
<polygon fill="#F1824C" points="404.3,79.5 389.6,75.6 393.5,90.3 396.6,85.8 402.3,91.6 405.5,88.3 399.8,82.6 "/>
<g>
	
		<line fill="none" stroke="#DDDDDD" stroke-width="4" stroke-linecap="round" stroke-miterlimit="10" x1="186.1" y1="29.7" x2="240.1" y2="29.7"/>
	
		<line fill="none" stroke="#DDDDDD" stroke-width="4" stroke-linecap="round" stroke-miterlimit="10" x1="186.1" y1="36.7" x2="211.1" y2="36.7"/>
</g>
<g>
	
		<line fill="none" stroke="#DDDDDD" stroke-width="4" stroke-linecap="round" stroke-miterlimit="10" x1="346.1" y1="29.7" x2="400.1" y2="29.7"/>
	
		<line fill="none" stroke="#DDDDDD" stroke-width="4" stroke-linecap="round" stroke-miterlimit="10" x1="346.1" y1="36.7" x2="371.1" y2="36.7"/>
</g>
</svg>
